<?xml version="1.0" standalone="no"?>
<!DOCTYPE svg PUBLIC "-//W3C//DTD SVG 20010904//EN"
 "http://www.w3.org/TR/2001/REC-SVG-20010904/DTD/svg10.dtd">
<svg version="1.0" xmlns="http://www.w3.org/2000/svg"
 width="415.000000pt" height="388.000000pt" viewBox="0 0 415.000000 388.000000"
 preserveAspectRatio="xMidYMid meet">

<g transform="translate(0.000000,388.000000) scale(0.100000,-0.100000)"
fill="#000000" stroke="none">
<path d="M272 2329 c-83 -54 -155 -138 -202 -231 -53 -107 -65 -168 -50 -276
102 -785 637 -1442 1382 -1697 437 -150 900 -149 1348 1 108 37 361 163 460
229 462 312 773 773 885 1312 39 188 41 254 11 348 -14 44 -44 108 -66 142
-45 69 -136 157 -197 190 l-40 23 8 -48 c37 -238 10 -539 -72 -792 -43 -132
-156 -358 -233 -465 -284 -392 -710 -655 -1168 -720 -203 -29 -514 -17 -683
26 -183 47 -408 146 -555 244 -417 281 -691 711 -766 1205 -17 116 -20 386 -5
485 5 33 8 61 6 63 -1 1 -30 -16 -63 -39z"/>
</g>
</svg>
